<svg xmlns="http://www.w3.org/2000/svg" viewBox="0 0 1600 1000" role="img" aria-labelledby="title desc">
<title id="title">UTILITY NETWORK RISK &amp; CRITICALITY</title><desc id="desc">Riyadh wastewater-network sample · failure likelihood × service consequence</desc><defs>
<pattern id="grid" width="55" height="55" patternUnits="userSpaceOnUse"><path d="M55 0H0V55" fill="none" stroke="#ffffff" stroke-opacity=".18" stroke-width="1"/></pattern>
<pattern id="fine" width="13" height="13" patternUnits="userSpaceOnUse"><path d="M13 0H0V13" fill="none" stroke="#142e2a" stroke-opacity=".16" stroke-width=".6"/></pattern>
<filter id="shadow"><feDropShadow dx="0" dy="3" stdDeviation="3" flood-opacity=".25"/></filter>
<linearGradient id="sat" x1="0" y1="0" x2="1" y2="1"><stop stop-color="#405948"/><stop offset=".45" stop-color="#6f7757"/><stop offset="1" stop-color="#4a5948"/></linearGradient>
</defs><rect width="1600" height="1000" fill="#f5f1e8"/>
<rect x="28" y="24" width="1544" height="952" fill="#fffdf8" stroke="#1d1730" stroke-width="3"/>
<rect x="28" y="24" width="1544" height="96" fill="#180725"/>
<text x="62" y="65" fill="#f3c44e" font-family="Arial" font-weight="700" font-size="28">UTILITY NETWORK RISK &amp; CRITICALITY</text>
<text x="62" y="94" fill="#fff" font-family="Arial" font-size="15">Riyadh wastewater-network sample · failure likelihood × service consequence</text>
<text x="1535" y="60" text-anchor="end" fill="#f3c44e" font-family="monospace" font-size="13">UTILITY GUARDIAN</text>
<text x="1535" y="88" text-anchor="end" fill="#ddd1e8" font-family="monospace" font-size="12">PREPARED 15 AUG 2026</text>
<rect x="55" y="145" width="1110" height="740" fill="url(#sat)" stroke="#222" stroke-width="2"/>
<rect x="55" y="145" width="1110" height="740" fill="url(#grid)"/>

<g stroke="#89d7e5" stroke-width="8" fill="none"><path d="M100 700L240 610 360 690 480 500 610 560 730 380 870 460 1040 250"/><path d="M360 690L430 810"/><path d="M610 560L720 720"/><path d="M730 380L650 250"/></g>
<g stroke="#f4d35e" stroke-width="3" fill="#163e37"><circle cx="100" cy="700" r="13" fill="#f4d35e"/><text x="118" y="688" fill="#fff" font-family="Arial" font-size="13">A-01</text><circle cx="240" cy="610" r="13" fill="#f4d35e"/><text x="258" y="598" fill="#fff" font-family="Arial" font-size="13">A-02</text><circle cx="360" cy="690" r="20" fill="#e43d30"/><text x="378" y="678" fill="#fff" font-family="Arial" font-size="13">A-03</text><circle cx="480" cy="500" r="13" fill="#f4d35e"/><text x="498" y="488" fill="#fff" font-family="Arial" font-size="13">A-04</text><circle cx="610" cy="560" r="13" fill="#f4d35e"/><text x="628" y="548" fill="#fff" font-family="Arial" font-size="13">A-05</text><circle cx="730" cy="380" r="13" fill="#f4d35e"/><text x="748" y="368" fill="#fff" font-family="Arial" font-size="13">A-06</text><circle cx="870" cy="460" r="20" fill="#f08a24"/><text x="888" y="448" fill="#fff" font-family="Arial" font-size="13">A-07</text><circle cx="1040" cy="250" r="13" fill="#f4d35e"/><text x="1058" y="238" fill="#fff" font-family="Arial" font-size="13">A-08</text><circle cx="430" cy="810" r="13" fill="#f4d35e"/><text x="448" y="798" fill="#fff" font-family="Arial" font-size="13">A-09</text><circle cx="720" cy="720" r="13" fill="#f4d35e"/><text x="738" y="708" fill="#fff" font-family="Arial" font-size="13">A-10</text><circle cx="650" cy="250" r="13" fill="#f4d35e"/><text x="668" y="238" fill="#fff" font-family="Arial" font-size="13">A-11</text></g>
<g fill="none" stroke="#ddd" stroke-width="4" opacity=".5"><path d="M80 210H1110"/><path d="M140 160V850"/><path d="M990 160V850"/></g>
<g fill="#232323" opacity=".75"><rect x="140" y="260" width="160" height="110"/><rect x="780" y="650" width="190" height="120"/><rect x="500" y="180" width="120" height="80"/></g>
<g stroke="#e43d30" stroke-width="3" fill="none"><circle cx="360" cy="690" r="45"/><circle cx="870" cy="460" r="45"/></g><g transform="translate(1165 145)"><path d="M28 0L52 72 28 58 4 72Z" fill="#111"/><path d="M28 0V58L4 72Z" fill="#fff"/><text x="28" y="94" text-anchor="middle" font-family="Arial" font-weight="700" font-size="18">N</text></g><g transform="translate(75 875)"><rect width="90" height="14" fill="#111"/><rect x="90" width="90" height="14" fill="#fff" stroke="#111"/><rect x="180" width="180" height="14" fill="#111"/><text y="-8" font-family="Arial" font-size="12">0</text><text x="90" y="-8" font-family="Arial" font-size="12">2</text><text x="180" y="-8" font-family="Arial" font-size="12">4</text><text x="360" y="-8" text-anchor="end" font-family="Arial" font-size="12">8 km</text></g><g fill="#3a3542" font-family="monospace" font-size="10">
<text x="72" y="143">31°40'N</text><text x="72" y="900">31°20'N</text>
<text x="170" y="908">74°10'E</text><text x="1035" y="908">74°35'E</text></g>
<rect x="1185" y="145" width="355" height="740" fill="#faf8f2" stroke="#222" stroke-width="2"/>
<text x="1210" y="183" font-family="Arial" font-size="23" font-weight="700">NETWORK CRITICALITY</text>
<circle cx="1225" cy="222" r="12" fill="#42b983"/><text x="1250" y="227" font-family="Arial" font-size="14">Low</text><circle cx="1225" cy="264" r="12" fill="#f4d35e"/><text x="1250" y="269" font-family="Arial" font-size="14">Moderate</text><circle cx="1225" cy="306" r="12" fill="#f08a24"/><text x="1250" y="311" font-family="Arial" font-size="14">High</text><circle cx="1225" cy="348" r="12" fill="#e43d30"/><text x="1250" y="353" font-family="Arial" font-size="14">Critical</text>
<text x="1210" y="410" font-family="Arial" font-size="20" font-weight="700">ASSET PRIORITY</text>
<rect x="1205" y="435" width="310" height="54" fill="#fde2df"/><text x="1218" y="457" font-family="Arial" font-weight="700">A-03</text><text x="1300" y="457" font-family="Arial">Inspect ≤24h</text><text x="1498" y="470" text-anchor="end" font-size="25" font-family="Arial" font-weight="700">92</text><rect x="1205" y="502" width="310" height="54" fill="#fde2df"/><text x="1218" y="524" font-family="Arial" font-weight="700">A-07</text><text x="1300" y="524" font-family="Arial">Pressure test</text><text x="1498" y="537" text-anchor="end" font-size="25" font-family="Arial" font-weight="700">87</text><rect x="1205" y="569" width="310" height="54" fill="#eee9df"/><text x="1218" y="591" font-family="Arial" font-weight="700">A-04</text><text x="1300" y="591" font-family="Arial">Schedule</text><text x="1498" y="604" text-anchor="end" font-size="25" font-family="Arial" font-weight="700">71</text><rect x="1205" y="636" width="310" height="54" fill="#eee9df"/><text x="1218" y="658" font-family="Arial" font-weight="700">A-09</text><text x="1300" y="658" font-family="Arial">Monitor</text><text x="1498" y="671" text-anchor="end" font-size="25" font-family="Arial" font-weight="700">58</text>
<text x="1210" y="735" font-family="Arial" font-size="18" font-weight="700">MODEL INPUTS</text><text x="1210" y="765" font-family="Arial" font-size="13">Age · material · failures · pressure</text><text x="1210" y="790" font-family="Arial" font-size="13">critical customers · redundancy</text><line x1="48" y1="918" x2="1552" y2="918" stroke="#1d1730"/>
<text x="55" y="943" font-family="Arial" font-size="12"><tspan font-weight="700">CRS:</tspan> WGS 84 / UTM Zone 38N   •   <tspan font-weight="700">Units:</tspan> metres / square kilometres   •   <tspan font-weight="700">Map author:</tspan> Muhammad Safdar</text>
<text x="55" y="962" font-family="Arial" font-size="11"><tspan font-weight="700">Sources:</tspan> Synthetic wastewater assets; OSM-style context; sample inspection and failure records</text>
<text x="1545" y="943" text-anchor="end" font-family="Arial" font-size="11"><tspan font-weight="700">Purpose:</tspan> Asset-management prioritization</text>
<text x="1545" y="962" text-anchor="end" fill="#a33" font-family="Arial" font-size="11">SYNTHETIC / PORTFOLIO SAMPLE — FIELD VALIDATION REQUIRED</text></svg>