<svg xmlns="http://www.w3.org/2000/svg" width="1200" height="700" viewBox="0 0 1200 700" role="img" aria-label="Drainage Lab sample runoff and surcharge analysis">
<defs><linearGradient id="b" x2="1" y2="1"><stop stop-color="#130020"/><stop offset="1" stop-color="#32154a"/></linearGradient><pattern id="c" width="50" height="30" patternUnits="userSpaceOnUse"><path d="M0 15Q12 0 25 15T50 15" fill="none" stroke="#806d88" opacity=".3"/></pattern><style>.h{font:700 28px Arial;fill:#f3c64e}.t{font:700 16px Arial;fill:#fff}.s{font:14px Arial;fill:#d9cce5}</style></defs>
<rect width="1200" height="700" fill="url(#b)"/><text x="45" y="55" class="h">Drainage Lab · Catchment, Capacity &amp; Surcharge</text><text x="45" y="84" class="s">Sample analytical map · DEM catchments, flow path, nodes and capacity deficits</text>
<rect x="45" y="120" width="850" height="520" rx="8" fill="#354039"/><rect x="45" y="120" width="850" height="520" fill="url(#c)"/>
<path d="M80 170L360 145 420 365 170 390Z" fill="#f3c64e" fill-opacity=".38" stroke="#f3c64e" stroke-width="3"/><path d="M440 150L820 180 780 410 470 370Z" fill="#9b63ce" fill-opacity=".35" stroke="#9b63ce" stroke-width="3"/><path d="M170 410L490 370 570 610 220 620Z" fill="#ff776d" fill-opacity=".40" stroke="#ff776d" stroke-width="3"/>
<path d="M90 205C250 300 340 345 470 380S690 470 855 585" fill="none" stroke="#5cc8ee" stroke-width="11"/><g fill="#f3c64e" stroke="#fff" stroke-width="3"><circle cx="255" cy="300" r="15"/><circle cx="470" cy="380" r="18"/><circle cx="690" cy="480" r="22"/><circle cx="855" cy="585" r="14"/></g><g class="t"><text x="275" y="295">J-08</text><text x="490" y="375">J-17</text><text x="712" y="475">J-24</text><text x="780" y="612">OF-02</text></g>
<rect x="930" y="120" width="225" height="520" rx="10" fill="#2d1542" stroke="#76528e"/><text x="955" y="160" class="t">10-year storm</text><g class="s"><text x="955" y="210">Rainfall: 92 mm/h</text><text x="955" y="248">Catchment: 2.8 km²</text><text x="955" y="286">Runoff coefficient: 0.72</text><text x="955" y="324">Capacity: 1.15 m³/s</text></g><line x1="955" y1="355" x2="1125" y2="355" stroke="#76528e"/><text x="955" y="405" class="h">+50.37</text><text x="955" y="435" class="s">m³/s sample capacity gap</text><text x="955" y="495" class="t">3 surcharge nodes</text><text x="955" y="530" class="s">J-17 priority upgrade</text><text x="955" y="565" class="s">OF-02 outfall review</text></svg>
