<svg xmlns="http://www.w3.org/2000/svg" viewBox="0 0 1600 1000" role="img" aria-labelledby="title desc">
<title id="title">FLOOD HAZARD, EXPOSURE &amp; RESPONSE PRIORITY</title><desc id="desc">Chenab–Sutlej influence sample · hazard × exposure × vulnerability × access</desc><defs>
<pattern id="grid" width="55" height="55" patternUnits="userSpaceOnUse"><path d="M55 0H0V55" fill="none" stroke="#ffffff" stroke-opacity=".18" stroke-width="1"/></pattern>
<pattern id="fine" width="13" height="13" patternUnits="userSpaceOnUse"><path d="M13 0H0V13" fill="none" stroke="#142e2a" stroke-opacity=".16" stroke-width=".6"/></pattern>
<filter id="shadow"><feDropShadow dx="0" dy="3" stdDeviation="3" flood-opacity=".25"/></filter>
<linearGradient id="sat" x1="0" y1="0" x2="1" y2="1"><stop stop-color="#405948"/><stop offset=".45" stop-color="#6f7757"/><stop offset="1" stop-color="#4a5948"/></linearGradient>
</defs><rect width="1600" height="1000" fill="#f5f1e8"/>
<rect x="28" y="24" width="1544" height="952" fill="#fffdf8" stroke="#1d1730" stroke-width="3"/>
<rect x="28" y="24" width="1544" height="96" fill="#180725"/>
<text x="62" y="65" fill="#f3c44e" font-family="Arial" font-weight="700" font-size="28">FLOOD HAZARD, EXPOSURE &amp; RESPONSE PRIORITY</text>
<text x="62" y="94" fill="#fff" font-family="Arial" font-size="15">Chenab–Sutlej influence sample · hazard × exposure × vulnerability × access</text>
<text x="1535" y="60" text-anchor="end" fill="#f3c44e" font-family="monospace" font-size="13">FLOOD INTELLIGENCE</text>
<text x="1535" y="88" text-anchor="end" fill="#ddd1e8" font-family="monospace" font-size="12">PREPARED 15 AUG 2026</text>
<rect x="55" y="145" width="1110" height="740" fill="url(#sat)" stroke="#222" stroke-width="2"/>
<rect x="55" y="145" width="1110" height="740" fill="url(#grid)"/>

<path d="M400 145C370 260 300 330 330 440S500 600 475 885" fill="none" stroke="#3ba9df" stroke-width="34"/><path d="M850 145C815 280 710 350 735 500S920 690 900 885" fill="none" stroke="#3ba9df" stroke-width="27"/>
<path d="M385 145C310 285 210 365 255 500S500 650 455 885L640 885C675 690 505 565 520 445S650 250 625 145Z" fill="#e31a1c" opacity=".72"/>
<path d="M760 145C700 285 620 380 660 525S900 710 840 885L1060 885C1080 710 890 570 910 455S1030 250 1010 145Z" fill="#ff8c00" opacity=".7"/>
<g fill="#ffea00" opacity=".8"><circle cx="120" cy="210" r="9"/><circle cx="203" cy="327" r="12"/><circle cx="286" cy="444" r="15"/><circle cx="369" cy="561" r="18"/><circle cx="452" cy="678" r="9"/><circle cx="535" cy="795" r="12"/><circle cx="618" cy="322" r="15"/><circle cx="701" cy="439" r="18"/><circle cx="784" cy="556" r="9"/><circle cx="867" cy="673" r="12"/><circle cx="950" cy="790" r="15"/><circle cx="1033" cy="317" r="18"/><circle cx="176" cy="434" r="9"/><circle cx="259" cy="551" r="12"/><circle cx="342" cy="668" r="15"/><circle cx="425" cy="785" r="18"/><circle cx="508" cy="312" r="9"/><circle cx="591" cy="429" r="12"/></g>
<g fill="#5ac85a" opacity=".75"><rect x="100" y="180" width="42" height="34"/><rect x="197" y="311" width="42" height="34"/><rect x="294" y="442" width="42" height="34"/><rect x="391" y="573" width="42" height="34"/><rect x="488" y="704" width="42" height="34"/><rect x="585" y="235" width="42" height="34"/><rect x="682" y="366" width="42" height="34"/><rect x="779" y="497" width="42" height="34"/><rect x="876" y="628" width="42" height="34"/><rect x="973" y="759" width="42" height="34"/><rect x="130" y="290" width="42" height="34"/><rect x="227" y="421" width="42" height="34"/><rect x="324" y="552" width="42" height="34"/><rect x="421" y="683" width="42" height="34"/><rect x="518" y="214" width="42" height="34"/><rect x="615" y="345" width="42" height="34"/></g>
<g fill="#fff" stroke="#111" stroke-width="2"><circle cx="350" cy="420" r="19"/><circle cx="520" cy="580" r="19"/><circle cx="820" cy="545" r="19"/></g>
<g font-family="Arial" font-weight="700" font-size="14"><text x="330" y="425">P1</text><text x="500" y="585">P2</text><text x="800" y="550">P3</text></g>
<g fill="none" stroke="#111" stroke-width="2"><path d="M80 240L1100 700"/><path d="M90 760L1080 250"/></g><g transform="translate(1165 145)"><path d="M28 0L52 72 28 58 4 72Z" fill="#111"/><path d="M28 0V58L4 72Z" fill="#fff"/><text x="28" y="94" text-anchor="middle" font-family="Arial" font-weight="700" font-size="18">N</text></g><g transform="translate(75 875)"><rect width="90" height="14" fill="#111"/><rect x="90" width="90" height="14" fill="#fff" stroke="#111"/><rect x="180" width="180" height="14" fill="#111"/><text y="-8" font-family="Arial" font-size="12">0</text><text x="90" y="-8" font-family="Arial" font-size="12">2</text><text x="180" y="-8" font-family="Arial" font-size="12">4</text><text x="360" y="-8" text-anchor="end" font-family="Arial" font-size="12">8 km</text></g><g fill="#3a3542" font-family="monospace" font-size="10">
<text x="72" y="143">31°40'N</text><text x="72" y="900">31°20'N</text>
<text x="170" y="908">74°10'E</text><text x="1035" y="908">74°35'E</text></g>
<rect x="1185" y="145" width="355" height="740" fill="#faf8f2" stroke="#222" stroke-width="2"/>
<text x="1210" y="183" font-family="Arial" font-size="24" font-weight="700">FLOOD HAZARD INDEX</text>
<rect x="1210" y="210" width="28" height="22" fill="#2c7bb6"/><text x="1250" y="227" font-family="Arial" font-size="14">Very low</text><rect x="1210" y="249" width="28" height="22" fill="#5ac85a"/><text x="1250" y="266" font-family="Arial" font-size="14">Low</text><rect x="1210" y="288" width="28" height="22" fill="#ffea00"/><text x="1250" y="305" font-family="Arial" font-size="14">Moderate</text><rect x="1210" y="327" width="28" height="22" fill="#ff8c00"/><text x="1250" y="344" font-family="Arial" font-size="14">High</text><rect x="1210" y="366" width="28" height="22" fill="#e31a1c"/><text x="1250" y="383" font-family="Arial" font-size="14">Very high</text>
<line x1="1210" y1="420" x2="1515" y2="420" stroke="#555"/><text x="1210" y="450" font-family="Arial" font-size="20" font-weight="700">EXPOSURE SUMMARY</text>
<text x="1210" y="490" font-family="Arial" font-size="14">Settlements</text><text x="1505" y="490" text-anchor="end" font-family="Arial" font-size="20" font-weight="700">47</text><text x="1210" y="535" font-family="Arial" font-size="14">Road crossings</text><text x="1505" y="535" text-anchor="end" font-family="Arial" font-size="20" font-weight="700">12</text><text x="1210" y="580" font-family="Arial" font-size="14">Critical facilities</text><text x="1505" y="580" text-anchor="end" font-family="Arial" font-size="20" font-weight="700">8</text><text x="1210" y="625" font-family="Arial" font-size="14">Priority zones</text><text x="1505" y="625" text-anchor="end" font-family="Arial" font-size="20" font-weight="700">3</text>
<g transform="translate(1205 680)"><rect width="310" height="180" fill="#eef0e8" stroke="#3a3542"/>
<text x="14" y="24" font-family="Arial" font-weight="700" font-size="14">REGIONAL LOCATOR</text>
<path d="M20 110L70 20 150 40 210 10 300 70 270 145 190 160 95 135Z" transform="translate(25 35) scale(.72)" fill="#ddd4c4" stroke="#777" stroke-width="2"/>
<rect x="150" y="86" width="48" height="36" fill="none" stroke="#d6453d" stroke-width="3"/>
<text x="14" y="164" font-family="Arial" font-size="12">Multan–Chenab/Sutlej sample</text></g><line x1="48" y1="918" x2="1552" y2="918" stroke="#1d1730"/>
<text x="55" y="943" font-family="Arial" font-size="12"><tspan font-weight="700">CRS:</tspan> WGS 84 / UTM Zone 43N   •   <tspan font-weight="700">Units:</tspan> metres / square kilometres   •   <tspan font-weight="700">Map author:</tspan> Muhammad Safdar</text>
<text x="55" y="962" font-family="Arial" font-size="11"><tspan font-weight="700">Sources:</tspan> Sentinel-1-style flood extent; DEM/HAND-style terrain; synthetic settlements and facilities</text>
<text x="1545" y="943" text-anchor="end" font-family="Arial" font-size="11"><tspan font-weight="700">Purpose:</tspan> Emergency preparedness screening</text>
<text x="1545" y="962" text-anchor="end" fill="#a33" font-family="Arial" font-size="11">SYNTHETIC / PORTFOLIO SAMPLE — FIELD VALIDATION REQUIRED</text></svg>