<svg xmlns="http://www.w3.org/2000/svg" width="1200" height="800" viewBox="0 0 1200 800" role="img" aria-label="EARTH-OBSERVATION LAND-COVER CHANGE">
<defs><linearGradient id="bg" x2="1" y2="1"><stop stop-color="#11001b"/><stop offset="1" stop-color="#321548"/></linearGradient><pattern id="grid" width="50" height="50" patternUnits="userSpaceOnUse"><path d="M50 0H0V50" fill="none" stroke="#eef4e9" stroke-width="1" opacity=".22"/></pattern><filter id="shadow"><feDropShadow dx="0" dy="5" stdDeviation="6" flood-opacity=".28"/></filter><style>.title{font:700 27px Arial;fill:#f3c64e}.subtitle{font:15px Arial;fill:#e3d8eb}.meta{font:12px Arial;fill:#d9cce5}.small{font:11px Arial;fill:#eadff0}.label{font:700 14px Arial;fill:#fff;paint-order:stroke;stroke:#180724;stroke-width:3}.panel{fill:#2c153f;stroke:#76528e;stroke-width:1.5}.road{fill:none;stroke:#5cc8ee;stroke-width:9}.minor{fill:none;stroke:#fff;stroke-width:4;stroke-dasharray:11 8}.good{fill:#59c89b;fill-opacity:.62;stroke:#81e8bc;stroke-width:3}.warn,.high{fill:#f3c64e;stroke:#fff;stroke-width:2}.bad,.critical{fill:#ff776d;stroke:#fff;stroke-width:2}.normal{fill:#59c89b}.tick{font:10px Arial;fill:#d9cce5}</style></defs>
<rect width="1200" height="800" fill="url(#bg)"/><rect x="25" y="25" width="1150" height="750" fill="none" stroke="#f3c64e" stroke-width="2"/>
<text x="55" y="65" class="title">EARTH-OBSERVATION LAND-COVER CHANGE</text><text x="55" y="92" class="subtitle">Bahawalpur demonstration · Bi-temporal classification and QA</text><text x="1125" y="62" text-anchor="end" class="meta">MAP SERIES 01 · SAMPLE ANALYSIS</text><text x="1125" y="84" text-anchor="end" class="meta">Prepared 15 Aug 2026</text>
<rect x="60" y="125" width="800" height="520" rx="5" fill="#314238" stroke="#f3c64e" stroke-width="2"/><rect x="60" y="125" width="800" height="520" fill="url(#grid)"/>
<g transform="translate(60 125)"><path d="M55 275L285 160 430 325 245 455Z" fill="#59c89b" fill-opacity=".55" stroke="#81e8bc" stroke-width="3"/><path d="M305 145L555 175 580 350 420 325Z" fill="#f3c64e" fill-opacity=".45" stroke="#f3c64e" stroke-width="3"/><path d="M500 355L805 285 835 555 590 590Z" fill="#ff776d" fill-opacity=".58" stroke="#ff776d" stroke-width="3"/><path d="M100 485L300 415 420 595 165 615Z" fill="#f3c64e" fill-opacity=".42" stroke="#f3c64e" stroke-width="3"/><g fill="#fff" stroke="#20102c" stroke-width="2"><circle cx="245" cy="295" r="8"/><circle cx="455" cy="250" r="8"/><circle cx="630" cy="430" r="8"/><circle cx="750" cy="495" r="8"/></g><text x="260" y="292" class="label">QA-08</text><text x="470" y="247" class="label">QA-12</text><text x="645" y="427" class="label">QA-17</text></g>
<g class="tick"><text x="60" y="118">74°10′E</text><text x="435" y="118">74°20′E</text><text x="815" y="118" text-anchor="end">74°30′E</text><text x="35" y="155">31°40′N</text><text x="35" y="390">31°30′N</text><text x="35" y="635">31°20′N</text></g>
<g transform="translate(805 145)"><path d="M22 0L42 58 22 48 2 58Z" fill="#f3c64e" stroke="#fff"/><path d="M22 0V48" stroke="#fff" stroke-width="2"/><text x="22" y="78" text-anchor="middle" class="label">N</text></g>
<g transform="translate(90 605)"><rect x="-12" y="-24" width="225" height="52" fill="#160722" fill-opacity=".88"/><rect width="60" height="10" fill="#fff"/><rect x="60" width="60" height="10" fill="#111"/><rect x="120" width="60" height="10" fill="#fff"/><text x="0" y="24" class="small">0</text><text x="57" y="24" class="small">1</text><text x="116" y="24" class="small">2</text><text x="176" y="24" class="small">3 km</text></g>
<rect x="885" y="125" width="265" height="520" rx="6" class="panel" filter="url(#shadow)"/><text x="910" y="162" class="title" font-size="19">LEGEND</text><rect x="910" y="184" width="20" height="14" fill="#ff776d" stroke="#fff"/><text x="942" y="196" class="meta">Built-up gain</text><rect x="910" y="220" width="20" height="14" fill="#59c89b" stroke="#fff"/><text x="942" y="232" class="meta">Vegetation loss</text><rect x="910" y="256" width="20" height="14" fill="#f3c64e" stroke="#fff"/><text x="942" y="268" class="meta">Accepted change</text><rect x="910" y="292" width="20" height="14" fill="#ffffff" stroke="#fff"/><text x="942" y="304" class="meta">QA sample</text>
<line x1="910" y1="350" x2="1125" y2="350" stroke="#76528e"/><text x="910" y="382" class="title" font-size="19">KEY RESULTS</text><text x="910" y="415" class="meta">Total change</text><text x="1125" y="415" text-anchor="end" class="label">23.9 km²</text><text x="910" y="449" class="meta">Built-up gain</text><text x="1125" y="449" text-anchor="end" class="label">14.8 km²</text><text x="910" y="483" class="meta">Mean confidence</text><text x="1125" y="483" text-anchor="end" class="label">92%</text><text x="910" y="517" class="meta">QA samples</text><text x="1125" y="517" text-anchor="end" class="label">37</text>
<rect x="930" y="555" width="175" height="70" fill="#171020" stroke="#f3c64e"/><path d="M945 605L970 570 990 600 1010 580 1040 610Z" fill="#76528e"/><path d="M1015 566l50 12-12 32-50-11z" fill="none" stroke="#f3c64e" stroke-width="2"/><circle cx="1040" cy="588" r="5" fill="#ff776d"/><text x="1018" y="620" class="small">STUDY AREA</text>
<rect x="60" y="665" width="1090" height="80" class="panel"/><text x="80" y="692" class="meta">CRS: WGS 84 / UTM Zone 43N · EPSG:32643   |   Scale: 1:100,000   |   Units: metres</text><text x="80" y="716" class="meta">Source: Synthetic Sentinel-2-style composites and validation samples</text><text x="80" y="738" class="meta">Cartography: Muhammad Safdar · GeoAI Resilience Research Lab   |   Status: demonstrative, non-authoritative</text><text x="1125" y="738" text-anchor="end" class="small">NORTH · SCALE · LEGEND · GRID · INSET · CRS · SOURCE</text>
</svg>