<svg xmlns="http://www.w3.org/2000/svg" viewBox="0 0 1600 1000" role="img" aria-labelledby="title desc">
<title id="title">URBAN DRAINAGE CAPACITY &amp; SURCHARGE</title><desc id="desc">Faisalabad drainage sample · catchments, flow paths, design storm and node capacity</desc><defs>
<pattern id="grid" width="55" height="55" patternUnits="userSpaceOnUse"><path d="M55 0H0V55" fill="none" stroke="#ffffff" stroke-opacity=".18" stroke-width="1"/></pattern>
<pattern id="fine" width="13" height="13" patternUnits="userSpaceOnUse"><path d="M13 0H0V13" fill="none" stroke="#142e2a" stroke-opacity=".16" stroke-width=".6"/></pattern>
<filter id="shadow"><feDropShadow dx="0" dy="3" stdDeviation="3" flood-opacity=".25"/></filter>
<linearGradient id="sat" x1="0" y1="0" x2="1" y2="1"><stop stop-color="#405948"/><stop offset=".45" stop-color="#6f7757"/><stop offset="1" stop-color="#4a5948"/></linearGradient>
</defs><rect width="1600" height="1000" fill="#f5f1e8"/>
<rect x="28" y="24" width="1544" height="952" fill="#fffdf8" stroke="#1d1730" stroke-width="3"/>
<rect x="28" y="24" width="1544" height="96" fill="#180725"/>
<text x="62" y="65" fill="#f3c44e" font-family="Arial" font-weight="700" font-size="28">URBAN DRAINAGE CAPACITY &amp; SURCHARGE</text>
<text x="62" y="94" fill="#fff" font-family="Arial" font-size="15">Faisalabad drainage sample · catchments, flow paths, design storm and node capacity</text>
<text x="1535" y="60" text-anchor="end" fill="#f3c44e" font-family="monospace" font-size="13">DRAINAGE LAB</text>
<text x="1535" y="88" text-anchor="end" fill="#ddd1e8" font-family="monospace" font-size="12">PREPARED 15 AUG 2026</text>
<rect x="55" y="145" width="1110" height="740" fill="url(#sat)" stroke="#222" stroke-width="2"/>
<rect x="55" y="145" width="1110" height="740" fill="url(#grid)"/>

<g fill="#7b68a5" opacity=".48" stroke="#c9baf0" stroke-width="2"><path d="M80 180L420 170 500 430 160 520Z"/><path d="M430 170L780 190 720 480 500 430Z"/><path d="M780 190L1120 220 1060 540 720 480Z"/><path d="M160 520L500 430 600 840 110 850Z"/><path d="M500 430L1060 540 1090 850 600 840Z"/></g>
<g fill="none" stroke="#58c7ef" stroke-width="10"><path d="M100 245C300 350 430 425 570 520S830 710 1100 830"/><path d="M440 170C470 320 500 440 570 520"/><path d="M900 210C790 330 670 430 570 520"/></g>
<g fill="#f5c550" stroke="#32154b" stroke-width="3"><circle cx="210" cy="305" r="16"/><text x="230" y="293" font-family="Arial" font-weight="700" fill="#fff">J-1</text><circle cx="430" cy="420" r="16"/><text x="450" y="408" font-family="Arial" font-weight="700" fill="#fff">J-2</text><circle cx="570" cy="520" r="22"/><text x="590" y="508" font-family="Arial" font-weight="700" fill="#fff">J-3</text><circle cx="750" cy="650" r="16"/><text x="770" y="638" font-family="Arial" font-weight="700" fill="#fff">J-4</text><circle cx="960" cy="770" r="16"/><text x="980" y="758" font-family="Arial" font-weight="700" fill="#fff">J-5</text></g>
<g fill="#d94841" opacity=".75"><path d="M430 430L710 475 650 700 360 645Z"/><path d="M780 630L1050 680 1080 850 810 840Z"/></g>
<g fill="none" stroke="#fff" stroke-width="2" stroke-dasharray="9 7"><path d="M230 180C360 270 460 390 570 520S800 745 1040 840"/></g><g transform="translate(1165 145)"><path d="M28 0L52 72 28 58 4 72Z" fill="#111"/><path d="M28 0V58L4 72Z" fill="#fff"/><text x="28" y="94" text-anchor="middle" font-family="Arial" font-weight="700" font-size="18">N</text></g><g transform="translate(75 875)"><rect width="90" height="14" fill="#111"/><rect x="90" width="90" height="14" fill="#fff" stroke="#111"/><rect x="180" width="180" height="14" fill="#111"/><text y="-8" font-family="Arial" font-size="12">0</text><text x="90" y="-8" font-family="Arial" font-size="12">2</text><text x="180" y="-8" font-family="Arial" font-size="12">4</text><text x="360" y="-8" text-anchor="end" font-family="Arial" font-size="12">8 km</text></g><g fill="#3a3542" font-family="monospace" font-size="10">
<text x="72" y="143">31°40'N</text><text x="72" y="900">31°20'N</text>
<text x="170" y="908">74°10'E</text><text x="1035" y="908">74°35'E</text></g>
<rect x="1185" y="145" width="355" height="740" fill="#faf8f2" stroke="#222" stroke-width="2"/>
<text x="1210" y="183" font-family="Arial" font-size="23" font-weight="700">SURCHARGE STATUS</text>
<rect x="1210" y="215" width="28" height="22" fill="#42b983"/><text x="1250" y="232" font-family="Arial" font-size="14">Available capacity</text><rect x="1210" y="257" width="28" height="22" fill="#f5c550"/><text x="1250" y="274" font-family="Arial" font-size="14">Watch node</text><rect x="1210" y="299" width="28" height="22" fill="#d94841"/><text x="1250" y="316" font-family="Arial" font-size="14">Surcharge area</text>
<text x="1210" y="375" font-family="Arial" font-size="20" font-weight="700">10-YEAR DESIGN STORM</text>
<text x="1210" y="415" font-family="Arial" font-size="13">Rainfall intensity</text><text x="1505" y="415" text-anchor="end" font-family="Arial" font-weight="700">92 mm/h</text><text x="1210" y="457" font-family="Arial" font-size="13">Peak runoff</text><text x="1505" y="457" text-anchor="end" font-family="Arial" font-weight="700">1.73 m³/s</text><text x="1210" y="499" font-family="Arial" font-size="13">Pipe capacity</text><text x="1505" y="499" text-anchor="end" font-family="Arial" font-weight="700">1.15 m³/s</text><text x="1210" y="541" font-family="Arial" font-size="13">Capacity gap</text><text x="1505" y="541" text-anchor="end" font-family="Arial" font-weight="700">+0.58 m³/s</text>
<text x="1210" y="625" font-family="Arial" font-size="18" font-weight="700">LONGITUDINAL PROFILE</text><polyline points="1210,750 1280,715 1350,730 1420,650 1505,610" fill="none" stroke="#8b4fc4" stroke-width="7"/><polyline points="1210,790 1280,760 1350,770 1420,700 1505,675" fill="none" stroke="#333" stroke-width="3"/><line x1="48" y1="918" x2="1552" y2="918" stroke="#1d1730"/>
<text x="55" y="943" font-family="Arial" font-size="12"><tspan font-weight="700">CRS:</tspan> WGS 84 / UTM Zone 43N   •   <tspan font-weight="700">Units:</tspan> metres / square kilometres   •   <tspan font-weight="700">Map author:</tspan> Muhammad Safdar</text>
<text x="55" y="962" font-family="Arial" font-size="11"><tspan font-weight="700">Sources:</tspan> Synthetic DEM/SWMM-style catchments, conduits, nodes and design-storm parameters</text>
<text x="1545" y="943" text-anchor="end" font-family="Arial" font-size="11"><tspan font-weight="700">Purpose:</tspan> Hydraulic screening</text>
<text x="1545" y="962" text-anchor="end" fill="#a33" font-family="Arial" font-size="11">SYNTHETIC / PORTFOLIO SAMPLE — FIELD VALIDATION REQUIRED</text></svg>